<mxfile host="app.diagrams.net" modified="2024-07-21T21:11:42.838Z" agent="Mozilla/5.0 (Windows NT 10.0; Win64; x64) AppleWebKit/537.36 (KHTML, like Gecko) Chrome/126.0.0.0 Safari/537.36" version="24.7.1" etag="Ea71qWF60voMFaSlxMzR" type="github">
  <diagram name="第 1 页" id="IyJi34QCGuSE3I2_MiJC">
    <mxGraphModel>
      <root>
        <mxCell id="0" />
        <mxCell id="1" parent="0" />
      </root>
    </mxGraphModel>
  </diagram>
</mxfile>
